<svg width="92" height="90" viewBox="0 0 92 90" fill="none" xmlns="http://www.w3.org/2000/svg">
<g clip-path="url(#clip0)">
<path d="M56.2158 43.3151L47.1379 51.9802L8.80357 88.5661C7.79717 89.5289 6.50615 90.0103 5.21512 90.0103C3.80211 90.0103 2.3891 89.4367 1.36237 88.2998C-0.660574 86.0669 -0.396269 82.5743 1.93164 80.6692L47.1379 43.8272L52.119 39.7712L56.2158 43.3151Z" fill="url(#paint0_linear)"/>
<path d="M46.7414 52.4206L37.8058 60.9422L36.9824 52.185L41.8721 48.2007L46.7414 52.4206Z" fill="#3A81D6" fill-opacity="0.8"/>
<path d="M91.9782 29.9078C91.9782 46.4288 78.6817 59.8259 62.2948 59.8259C51.9666 59.8259 42.8684 54.5101 37.5518 46.4391C34.431 41.7071 32.6113 36.0225 32.6113 29.9078C32.6113 13.3868 45.9079 0 62.2948 0C69.6953 0 76.4554 2.72448 81.65 7.23114C87.973 12.7211 91.9782 20.8433 91.9782 29.9078Z" fill="url(#paint1_linear)"/>
<path d="M62.2946 53.2094C75.0671 53.2094 85.4213 42.777 85.4213 29.9079C85.4213 17.0389 75.0671 6.60645 62.2946 6.60645C49.5221 6.60645 39.168 17.0389 39.168 29.9079C39.168 42.777 49.5221 53.2094 62.2946 53.2094Z" fill="white"/>
<path opacity="0.06" d="M91.9782 29.9079C91.9782 46.4289 78.6816 59.8259 62.2947 59.8259C51.9665 59.8259 42.8683 54.5101 37.5518 46.4391C71.027 43.6942 79.8507 15.1179 81.6601 7.2312C87.9729 12.7211 91.9782 20.8434 91.9782 29.9079Z" fill="#1A6FB5" fill-opacity="0.5"/>
<path d="M62.2944 29.959C64.9782 29.959 67.1536 27.7671 67.1536 25.0631C67.1536 22.3591 64.9782 20.1672 62.2944 20.1672C59.6107 20.1672 57.4353 22.3591 57.4353 25.0631C57.4353 27.7671 59.6006 29.959 62.2944 29.959ZM62.2944 32.4069C59.0516 32.4069 52.5762 34.0457 52.5762 37.3028V38.5319C52.5762 39.2079 53.1251 39.761 53.796 39.761H70.8132C71.4841 39.761 72.0331 39.2079 72.0331 38.5319V37.3028C72.0127 34.0559 65.5373 32.4069 62.2944 32.4069Z" fill="url(#paint2_linear)"/>
</g>
<defs>
<linearGradient id="paint0_linear" x1="5.6749" y1="84.3265" x2="53.9246" y2="40.7922" gradientUnits="userSpaceOnUse">
<stop stop-color="#67C3F3"/>
<stop offset="1" stop-color="#5A98F2"/>
</linearGradient>
<linearGradient id="paint1_linear" x1="50.0175" y1="2.11336" x2="72.782" y2="52.9053" gradientUnits="userSpaceOnUse">
<stop stop-color="#67C3F3"/>
<stop offset="1" stop-color="#5A98F2"/>
</linearGradient>
<linearGradient id="paint2_linear" x1="55.2685" y1="28.3947" x2="72.9194" y2="36.939" gradientUnits="userSpaceOnUse">
<stop stop-color="#B0F4FF"/>
<stop offset="0.071077" stop-color="#A6F1FF"/>
<stop offset="0.2937" stop-color="#8BE8FD"/>
<stop offset="0.5209" stop-color="#78E1FD"/>
<stop offset="0.7536" stop-color="#6DDDFC"/>
<stop offset="1" stop-color="#69DCFC"/>
</linearGradient>
<clipPath id="clip0">
<rect width="91.978" height="90" fill="white"/>
</clipPath>
</defs>
</svg>
